# xmcd CD database file
#
# Track frame offsets:
#	150
#	14101
#	28964
#	45606
#	63051
#	78371
#	90537
#	110331
#	134044
#	153562
#	167948
#	183399
#	195767
#	214313
#	229361
#	243482
#	257814
#	273547
#	290812
#	304231
#
# Disc length: 4266 seconds
#
# Revision: 0
# Processed by: cddbd v1.5.2PL0 Copyright (c) Steve Scherf et al.
# Submitted via: CDex 1.70beta3
#
DISCID=2d10a814
DTITLE=KING TWIN BEST SERIES - MINYOU BEST zyou CD02
DYEAR=2010
DGENRE=Country
TTITLE0=01　秋田おばこ
TTITLE1=02　ドンパン節
TTITLE2=03　喜代節
TTITLE3=04　秋田長持唄
TTITLE4=05　真室川音頭
TTITLE5=06　花笠音頭
TTITLE6=07　最上川舟唄
TTITLE7=08　山形タント節
TTITLE8=09　山形大黒舞
TTITLE9=10　さんさ時雨
TTITLE10=11　米節～博多小女浪枕より～
TTITLE11=12　お立ち酒
TTITLE12=13　長持唄
TTITLE13=14　相馬盆唄
TTITLE14=15　会津磐梯山
TTITLE15=16　相馬二編返し
TTITLE16=17　新相馬節
TTITLE17=18　磯原節
TTITLE18=19　常磐炭坑節
TTITLE19=20　磯節
EXTD=YEAR: 2010
EXTT0=
EXTT1=
EXTT2=
EXTT3=
EXTT4=
EXTT5=
EXTT6=
EXTT7=
EXTT8=
EXTT9=
EXTT10=
EXTT11=
EXTT12=
EXTT13=
EXTT14=
EXTT15=
EXTT16=
EXTT17=
EXTT18=
EXTT19=
PLAYORDER=
